<svg width="448" height="173" viewBox="0 0 448 173" fill="none" xmlns="http://www.w3.org/2000/svg">
<path d="M23.4203 131.818C23.2925 132.025 23.1007 132.143 22.8449 132.172C22.1417 132.25 21.4064 131.93 20.6392 131.211C20.2556 130.804 20.0478 130.425 20.0159 130.075C20.0159 129.946 20.0318 129.848 20.0638 129.78C21.3425 126.582 23.4683 121.021 26.4412 113.099C32.1313 98.1187 36.0792 88.1416 38.2849 83.1674C32.5309 89.084 27.1924 95.7585 22.2695 103.191C15.2368 113.882 11.7045 122.365 11.6725 128.641V129.316C11.8643 133.541 14.4216 135.796 19.3446 136.084C20.4634 136.152 21.6781 136.113 22.9888 135.967C28.4551 135.358 34.401 133.279 40.8263 129.732C46.932 126.35 51.3274 122.756 54.0127 118.95C54.8438 117.764 55.4352 116.637 55.7868 115.568C56.2663 114.067 56.5061 112.77 56.5061 111.676C56.4741 106.92 52.3824 104.996 44.2308 105.904L42.8882 106.054L42.7923 106.065C41.9931 106.154 41.2099 105.775 40.4427 104.928C40.155 104.542 39.9952 104.206 39.9632 103.92C39.9952 103.691 40.123 103.516 40.3468 103.394C53.6131 97.4765 63.2831 91.8952 69.3568 86.6505C73.2567 83.2565 75.7342 79.6029 76.7891 75.6898C77.0768 74.5642 77.2206 73.4706 77.2206 72.4091C77.2206 71.798 77.1727 71.2083 77.0768 70.64C76.3416 66.5084 73.4326 63.9218 68.3498 62.8803C65.6007 62.3505 62.388 62.2906 58.7118 62.7005C50.3684 63.6308 41.1939 66.5836 31.1883 71.5591C25.5302 74.3772 20.4954 77.4474 16.0839 80.7698C10.6815 84.846 7.06926 88.6743 5.24715 92.2548C4.51191 93.7199 4.14429 95.0797 4.14429 96.3341C4.14429 96.5592 4.17626 96.9095 4.24019 97.3848C4.71969 99.5508 6.76558 101.188 10.3778 102.297C11.4008 102.601 12.0561 103.155 12.3438 103.96C12.4077 104.113 12.4397 104.255 12.4397 104.383C12.3758 104.712 12.184 104.91 11.8643 104.978C11.6086 104.974 11.3528 104.939 11.0971 104.871C5.05535 103.003 1.63489 100.104 0.835714 96.1723C0.739813 95.7005 0.691862 95.2555 0.691862 94.8374C0.691862 90.4629 4.25617 85.4016 11.3848 79.6533C11.9282 79.1746 12.4877 78.7263 13.0631 78.3083C20.2876 72.871 28.6629 68.3507 38.189 64.7475C44.966 62.1907 51.1676 60.5986 56.7938 59.9712C60.6618 59.54 64.0982 59.6071 67.1031 60.1727C71.8982 61.0855 75.5264 63.1255 77.9878 66.2927C79.3305 67.9764 80.1616 69.8458 80.4813 71.9008C80.6091 72.7872 80.6731 73.4716 80.6731 73.9541C80.6731 78.3607 78.6911 82.6827 74.7272 86.9202C73.992 87.6776 73.2248 88.4065 72.4256 89.1067C67.1191 93.6547 59.2712 98.4056 48.882 103.359C53.2295 104.001 56.3463 105.519 58.2323 107.914C59.5749 109.629 60.2462 111.468 60.2462 113.431C60.2462 117.773 57.1774 122.393 51.0397 127.291C47.4595 130.167 43.7513 132.478 39.9153 134.224C34.6727 136.578 29.7977 138.006 25.2904 138.509C22.4134 138.83 19.8241 138.732 17.5224 138.217C11.3528 136.718 8.25204 133.059 8.22007 127.241C8.22007 120.132 12.5516 110.386 21.2146 98.0011C25.4662 91.9303 29.6699 86.669 33.8256 82.2172C36.255 79.5983 38.253 77.6707 39.8194 76.4346C41.0021 75.4665 42.1529 74.92 43.2718 74.7953C44.6783 74.6384 45.7013 75.1194 46.3406 76.2382C46.5324 76.5707 46.6283 76.8977 46.6283 77.2194C46.5644 77.7411 46.3246 78.0413 45.9091 78.1198C45.8132 78.1305 45.6533 78.1161 45.4296 78.0767C43.4476 80.0346 38.0132 92.8954 29.1264 116.659C25.8019 125.521 23.8998 130.574 23.4203 131.818ZM78.7071 94.1478C78.835 93.9727 79.0108 93.8727 79.2346 93.8477C79.9378 93.7693 80.6731 94.1055 81.4403 94.8562C81.8239 95.2959 82.0317 95.6748 82.0636 95.9929C82.0636 96.1216 82.0317 96.2377 81.9677 96.3413C79.4104 100.261 77.6042 103.888 76.5493 107.222C76.1018 108.623 75.878 109.806 75.878 110.771C75.878 110.996 75.91 111.282 75.9739 111.629C78.5633 110.439 82.4312 106.18 87.5779 98.8519C88.6648 97.3154 89.6078 95.9237 90.407 94.6766C90.6627 94.3265 90.9664 94.1157 91.318 94.0443C92.0853 93.9588 92.7885 94.3629 93.4279 95.2565C93.7156 95.6747 93.8594 96.0286 93.8594 96.3181C93.8275 96.4825 93.7795 96.6165 93.7156 96.7201C92.8525 99.4539 92.1812 102.391 91.7017 105.533C91.5418 106.58 91.4619 107.441 91.4619 108.117C91.4939 109.046 91.6537 109.591 91.9414 109.752C92.1971 109.884 92.5648 109.924 93.0443 109.87C95.218 109.628 98.6864 107.472 103.449 103.403C105.975 101.223 107.685 99.5369 108.58 98.3435C108.772 98.1613 108.932 98.0631 109.06 98.0488C109.731 97.974 110.418 98.3316 111.122 99.1216C111.441 99.5363 111.617 99.8866 111.649 100.173C111.617 100.337 111.569 100.471 111.505 100.575C109.619 103.101 107.094 105.569 103.929 107.981C100.445 110.621 97.4237 112.084 94.8664 112.369C93.5238 112.486 92.373 112.293 91.4139 111.789C89.2402 110.552 88.1533 108.421 88.1533 105.398V104.722C84.1894 109.957 81.0567 113.137 78.7551 114.262C78.6911 114.269 78.6272 114.292 78.5633 114.331C78.2755 114.46 77.9719 114.542 77.6522 114.578C76.3735 114.688 75.1748 114.194 74.0559 113.097C73.0969 112.078 72.6174 110.748 72.6174 109.108C72.6174 105.409 74.6473 100.422 78.7071 94.1478ZM132.412 95.8793C132.859 95.4113 133.498 95.5652 134.33 96.3409C135.161 97.1167 135.416 97.7637 135.097 98.2818C135.033 98.3211 135.001 98.3568 135.001 98.389C134.745 98.6426 132.603 101.23 128.575 106.15C121.543 114.685 116.684 119.473 113.999 120.512C113.391 120.709 112.88 120.766 112.464 120.683C111.409 120.415 110.546 119.836 109.875 118.946C108.66 117.248 110.019 112.577 113.951 104.934C114.238 104.355 114.686 103.501 115.293 102.372C116.092 100.835 116.62 99.7952 116.876 99.252C112.944 100.881 109.907 101.074 107.765 99.8336C105.751 98.6751 104.984 96.7664 105.463 94.1075C105.815 92.0419 106.726 90.3804 108.197 89.1228C108.676 88.7155 109.156 88.4208 109.635 88.2387C110.946 87.7066 112.208 88.0161 113.423 89.1672C114.094 89.8322 114.526 90.556 114.718 91.3388C114.974 92.7577 114.59 94.6017 113.567 96.8708C113.823 96.778 114.286 96.5654 114.958 96.2333C116.556 95.4761 117.579 95.0726 118.026 95.0227C119.529 94.9838 120.584 95.6542 121.191 97.0339C121.543 97.9597 120.424 100.979 117.835 106.093C115.181 111.374 113.615 114.637 113.135 115.88C112.88 116.616 112.704 117.215 112.608 117.676C114.75 116.44 118.969 112.029 125.267 104.444C129.391 99.4487 131.772 96.5939 132.412 95.8793ZM108.628 97.8557C110.131 95.3723 111.026 93.2783 111.313 91.5736C110.578 92.2667 109.939 93.2386 109.395 94.4893C109.044 95.2362 108.772 96.1349 108.58 97.1856C108.548 97.543 108.564 97.7663 108.628 97.8557ZM146.221 91.7342C145.965 92.3095 145.278 92.2896 144.159 91.6746C143.968 91.5673 143.808 91.4565 143.68 91.3421C141.186 92.3277 138.933 93.946 136.919 96.197C135.161 98.1943 134.266 100.063 134.234 101.804C134.234 102.19 134.282 102.538 134.377 102.849C135.592 102.617 137.286 101.528 139.46 99.5804C141.634 97.6333 143.216 96.0899 144.207 94.9501C145.23 93.8067 146.141 92.7563 146.94 91.7987L146.988 91.7451C147.212 91.4629 147.484 91.3039 147.804 91.2683C148.571 91.1827 149.306 91.6315 150.009 92.6145C150.265 92.972 150.393 93.2794 150.393 93.5367C150.361 93.6367 150.329 93.7046 150.297 93.7404C150.105 95.177 150.009 96.41 150.009 97.4392C150.009 98.4042 150.121 99.2602 150.345 100.007C150.537 100.372 150.888 100.542 151.4 100.517C153.51 100.282 158.289 97.4167 165.737 91.9223C165.865 91.8116 166.009 91.7473 166.169 91.7294C166.872 91.651 167.575 92.0229 168.278 92.8451C168.598 93.2598 168.774 93.6262 168.806 93.9443C168.774 94.173 168.678 94.3445 168.518 94.4588C168.135 94.7589 167.511 95.2305 166.648 95.8735C162.141 99.2709 158.768 101.432 156.531 102.357C155.412 102.836 154.389 103.127 153.462 103.23C153.078 103.273 152.583 103.264 151.975 103.203C148.97 102.766 147.212 101.016 146.701 97.9529C142.097 102.776 138.581 105.339 136.152 105.643L135.72 105.691C134.09 105.679 132.763 104.943 131.74 103.481C131.421 103.002 131.181 102.498 131.021 101.969C130.893 101.501 130.829 100.977 130.829 100.398C130.829 97.7283 132.38 94.9984 135.48 92.2081C137.302 90.5897 139.141 89.4037 140.995 88.6501C141.442 88.4716 141.922 88.3538 142.433 88.2968C143.776 88.1792 144.879 88.587 145.742 89.52C146.349 90.2564 146.509 90.9945 146.221 91.7342ZM180.266 51.8973C180.394 51.6901 180.586 51.5561 180.841 51.4954C181.545 51.417 182.296 51.7514 183.095 52.4986C183.607 53.0205 183.798 53.4816 183.67 53.8818L175.759 74.7385C171.571 86.0772 168.534 94.7787 166.648 100.843C170.484 94.5291 172.498 91.2328 172.69 90.9541C175.982 85.8265 178.348 82.8127 179.786 81.9125C180.074 81.7196 180.41 81.6017 180.793 81.559C181.848 81.4413 182.759 81.8705 183.527 82.8464C183.814 83.2003 183.958 83.5059 183.958 83.7632C183.926 83.9276 183.862 84.0473 183.766 84.1223C183.67 84.1652 183.559 84.1777 183.431 84.1598C182.951 84.1811 182.296 84.6401 181.465 85.5369C180.058 87.0447 177.884 90.1497 174.943 94.8521C174.943 94.8842 174.943 94.9647 174.943 95.0933C174.912 95.3542 174.896 95.5651 174.896 95.7259C174.927 98.1347 175.343 99.584 176.142 100.074C176.59 100.313 177.101 100.401 177.677 100.337C180.202 100.055 183.942 97.7729 188.897 93.4892C191.167 91.5314 192.781 89.9523 193.74 88.7517C193.836 88.6124 193.964 88.5338 194.124 88.516C194.731 88.4482 195.37 88.8594 196.042 89.7495C196.393 90.2571 196.569 90.6878 196.569 91.0416C196.537 91.2382 196.489 91.4044 196.425 91.5402C193.708 94.8988 190.623 97.6873 187.171 99.9056C184.486 101.652 182.072 102.645 179.93 102.884C178.268 103.037 176.782 102.753 175.471 102.03C174.224 101.301 173.249 100.203 172.546 98.738C169.094 104.398 166.84 107.898 165.785 109.238C164.922 110.299 164.283 110.869 163.867 110.947C162.173 111.136 161.182 110.523 160.894 109.108C160.862 108.854 160.846 108.614 160.846 108.389C160.846 104.594 167.255 85.9472 180.074 52.4494L180.266 51.8973ZM268.159 24.1009C269.118 23.994 269.725 24.3444 269.981 25.1522C270.013 25.3416 270.029 25.5167 270.029 25.6776C270.029 26.6425 269.55 27.3714 268.591 27.8643C268.303 28.0251 267.999 28.1233 267.679 28.1589C266.72 28.2659 266.113 27.9154 265.857 27.1077C265.825 26.9182 265.809 26.7431 265.809 26.5823C265.809 25.6173 266.289 24.8884 267.248 24.3955C267.536 24.2347 267.839 24.1366 268.159 24.1009ZM274.057 23.4433C275.016 23.3364 275.623 23.6868 275.879 24.4946C275.911 24.684 275.927 24.8591 275.927 25.0199C275.927 25.9849 275.447 26.7138 274.488 27.2067C274.201 27.3675 273.897 27.4657 273.577 27.5013C272.618 27.6082 272.011 27.2578 271.755 26.45C271.723 26.2606 271.707 26.0855 271.707 25.9247C271.707 24.9597 272.187 24.2308 273.146 23.7379C273.434 23.5771 273.737 23.4789 274.057 23.4433ZM277.27 36.6426C278.005 37.204 278.388 37.708 278.42 38.1547C278.356 38.5478 278.133 38.7819 277.749 38.8568C277.27 38.8781 276.71 38.6832 276.071 38.272C274.249 37.0277 272.203 36.5321 269.933 36.7852C267.184 37.1239 264.211 38.4525 261.014 40.771C261.558 40.6782 262.293 40.5801 263.22 40.4768C271.659 39.5358 276.902 42.8111 278.948 50.3025C279.651 52.8938 280.003 55.9907 280.003 59.5932C280.003 66.1227 278.468 73.6113 275.399 82.0591C271.819 91.8826 267.232 99.8564 261.638 105.98C256.203 111.861 250.481 115.153 244.472 115.855L244.424 115.861C239.085 116.424 234.913 114.991 231.909 111.563C230.246 109.657 229.127 107.289 228.552 104.459C228.2 102.664 228.025 100.802 228.025 98.8725C228.025 98.3579 228.057 97.5984 228.12 96.5942C223.166 95.5384 219.681 93.1286 217.667 89.3647C216.548 87.3022 215.989 84.9844 215.989 82.4112C215.989 74.8524 219.441 67.3751 226.346 59.9792C231.749 54.1982 238.206 49.4576 245.718 45.7573C248.18 44.5501 250.561 43.5769 252.863 42.8378C254.589 41.0692 256.283 39.5777 257.946 38.363C261.398 35.823 264.675 34.3802 267.775 34.0344C271.068 33.6995 274.233 34.5689 277.27 36.6426ZM255.788 45.4065C249.778 51.5768 244.44 59.6504 239.772 69.6273C235.585 78.618 232.963 86.9033 231.909 94.4832C232.836 94.4763 233.827 94.4141 234.881 94.2964C239.069 93.8295 243.768 92.6462 248.979 90.7464C249.011 90.7429 249.043 90.7232 249.075 90.6875C249.139 90.6804 249.187 90.675 249.219 90.6714C249.986 90.5859 250.753 90.9667 251.52 91.814C251.84 92.2287 252.016 92.5789 252.048 92.8649C251.984 93.1293 251.84 93.3062 251.616 93.3955C246.406 95.263 241.738 96.4267 237.615 96.8865C235.505 97.1218 233.507 97.1676 231.621 97.0241C231.493 98.7753 231.429 100.085 231.429 100.954C231.429 109.477 234.754 113.561 241.403 113.206C241.69 113.174 241.962 113.144 242.218 113.115L242.266 113.11C249.586 112.294 256.347 107.471 262.549 98.6416C267.504 91.5918 271.308 83.2873 273.961 73.7279C275.687 67.5527 276.55 62.1654 276.55 57.5658C276.55 50.3286 275.032 45.8179 271.995 44.0336C270.333 43.0932 268.111 42.778 265.33 43.0881C262.9 43.359 259.72 44.1318 255.788 45.4065ZM247.876 48.5563C241.77 51.4887 236.16 55.5558 231.045 60.7579C224.492 67.4069 220.704 74.0532 219.681 80.6968C219.521 81.8404 219.441 82.9429 219.441 84.0044C219.505 89.9799 222.462 93.4135 228.312 94.3052C229.239 85.5494 232.26 75.9812 237.375 65.6006C240.54 59.1686 244.04 53.4871 247.876 48.5563ZM288.921 81.0338C288.762 81.1482 288.618 81.2124 288.49 81.2267C287.755 81.3087 287.003 80.9421 286.236 80.1271C285.885 79.7481 285.693 79.3996 285.661 79.0815C285.693 78.885 285.757 78.7331 285.853 78.6259C285.853 78.6259 287.019 77.5952 289.353 75.5338C291.751 73.5938 293.557 72.3953 294.771 71.9383C294.995 71.849 295.283 71.7847 295.635 71.7455C296.466 71.685 297.249 71.9033 297.984 72.4002C298.719 72.9294 299.087 73.6925 299.087 74.6897C299.087 76.4266 297.792 79.2567 295.203 83.1801C294.851 83.6696 294.628 84.0001 294.532 84.1716C296.546 84.0757 298.144 84.5408 299.327 85.5669C300.573 84.5272 301.852 83.484 303.163 82.4373C304.473 81.3905 305.608 80.492 306.567 79.7418C307.558 78.988 308.453 78.3253 309.252 77.7537C310.052 77.15 310.675 76.6784 311.123 76.339L311.746 75.8836C312.321 75.4656 312.977 75.4729 313.712 75.9056C313.872 75.9843 314 76.0665 314.095 76.1523C314.895 76.8352 315.166 77.416 314.911 77.8948C314.847 77.9663 314.799 78.0199 314.767 78.0556C314.767 78.0556 314.559 78.2235 314.143 78.5593C309.252 82.3855 304.793 85.9706 300.765 89.3145C300.478 92.0806 298.24 95.9165 294.052 100.822C290.6 104.842 287.403 107.836 284.462 109.804C283.855 110.226 283.311 110.544 282.832 110.758C282.48 110.926 282.081 111.035 281.633 111.084C280.195 111.245 279.028 110.828 278.133 109.834C277.653 109.277 277.413 108.676 277.413 108.033C277.413 107.711 277.445 107.45 277.509 107.25C278.5 104.084 285.117 97.3958 297.361 87.1852C297.009 87.0315 296.45 86.9973 295.682 87.0829C294.052 87.2647 292.742 87.5716 291.751 88.0038L291.703 88.0091C291.639 88.0484 291.591 88.0698 291.559 88.0734C290.792 88.1589 290.024 87.7942 289.257 86.9791C288.937 86.5966 288.762 86.2463 288.73 85.9282C288.762 85.796 288.81 85.6781 288.874 85.5744C290.76 82.9839 292.55 80.1146 294.244 76.9666C294.404 76.6914 294.548 76.4341 294.676 76.1947C292.853 77.4915 290.935 79.1045 288.921 81.0338ZM292.71 96.2437C287.563 100.838 284.094 104.345 282.304 106.764C285.725 104.26 289.193 100.753 292.71 96.2437ZM311.65 90.7545C311.714 90.6187 311.826 90.5419 311.986 90.5241C312.465 90.4706 312.945 90.7227 313.424 91.2804C313.68 91.5735 313.776 91.8362 313.712 92.0685L312.657 94.502C314.383 95.4675 315.262 96.6078 315.294 97.923C315.262 98.6985 314.943 99.3614 314.335 99.9116C313.824 100.322 313.264 100.562 312.657 100.629C311.314 100.779 310.164 100.425 309.205 99.567C308.757 99.1022 308.517 98.6143 308.485 98.1032C308.485 97.5243 308.853 97.4029 309.588 97.739C310.259 98.0502 310.627 98.4434 310.691 98.9187C311.746 99.0584 312.481 98.687 312.897 97.8043C312.929 97.7043 312.961 97.6203 312.993 97.5524C313.057 97.2558 313.088 97.0753 313.088 97.011C313.088 96.0461 312.369 95.3221 310.931 94.8392C310.707 94.7998 310.515 94.7569 310.355 94.7104C310.259 94.6889 310.211 94.5978 310.211 94.4369C310.211 94.0831 310.675 92.8896 311.602 90.8563C311.634 90.8206 311.65 90.7866 311.65 90.7545ZM325.747 74.0811C325.588 74.4206 325.364 74.6225 325.076 74.6867C324.373 74.7651 323.638 74.3646 322.87 73.4852C322.423 72.9562 322.247 72.5094 322.343 72.1449L323.014 70.0919C321.192 70.6488 319.066 72.4137 316.637 75.3865C313.888 78.7165 312.273 81.727 311.794 84.418C311.698 84.879 311.65 85.3025 311.65 85.6885C311.682 86.489 311.874 87.1592 312.225 87.699C312.641 87.7491 313.041 87.7528 313.424 87.7101C316.525 87.3643 321.911 84.2227 329.583 78.2852C330.255 77.7922 331.23 77.0402 332.508 76.0292C334.586 74.3822 336.009 73.2908 336.776 72.755C336.936 72.6406 337.064 72.5781 337.16 72.5674C337.895 72.4855 338.662 72.8663 339.461 73.71C339.781 74.1247 339.957 74.475 339.989 74.7609C339.957 74.9896 339.877 75.1433 339.749 75.2218C338.918 75.8292 337.431 76.9759 335.29 78.6622C329.152 83.4636 324.565 86.677 321.528 88.3022C319.13 89.5666 317.084 90.2933 315.39 90.4822C315.07 90.5178 314.671 90.5302 314.191 90.5194C312.114 90.3972 310.499 89.4514 309.348 87.682C308.805 86.842 308.469 85.9306 308.341 84.9477C308.309 84.7583 308.293 84.5188 308.293 84.2293C308.293 81.5275 309.556 78.3793 312.082 74.7847C314.511 71.3938 317.068 69.0501 319.754 67.7536C320.617 67.3678 321.416 67.134 322.151 67.052C323.877 66.8917 325.236 67.5122 326.227 68.9134C326.547 69.3924 326.706 69.9214 326.706 70.5004C326.706 70.9829 326.435 72.0424 325.891 73.6791C325.827 73.8471 325.779 73.9811 325.747 74.0811ZM339.797 65.8082C339.925 65.601 340.101 65.4688 340.324 65.4117C341.028 65.3333 341.779 65.6837 342.578 66.4631C342.962 66.8706 343.169 67.2334 343.201 67.5515C343.201 67.648 343.169 67.7481 343.105 67.8517C340.324 74.0802 338.79 78.8508 338.502 82.1637C338.47 82.4568 338.454 82.732 338.454 82.9893C338.454 83.4396 338.518 83.8989 338.646 84.3671L338.742 84.3564C341.395 84.0606 345.327 80.9364 350.538 74.9838C351.88 73.4189 353.031 72.004 353.99 70.7391C354.086 70.5997 354.214 70.5211 354.374 70.5033C354.917 70.4427 355.493 70.8611 356.1 71.7583C356.42 72.2373 356.579 72.6698 356.579 73.0557C356.547 73.2201 356.484 73.4042 356.388 73.6079C349.93 82.0474 344.736 86.5508 340.804 87.1178C340.452 87.1571 340.005 87.1426 339.461 87.0746C337.927 86.7953 336.744 86.0105 335.913 84.7201C335.369 83.8801 335.098 82.7524 335.098 81.3372C335.098 77.9277 336.664 72.7514 339.797 65.8082ZM345.119 63.0436C344.991 63.2187 344.816 63.3348 344.592 63.3919C343.889 63.4703 343.153 63.1342 342.386 62.3834C342.003 61.9437 341.795 61.5648 341.763 61.2467C341.763 61.1503 341.795 61.0341 341.859 60.8983L345.839 54.0376C345.966 53.8626 346.158 53.7608 346.414 53.7323C347.149 53.6503 347.9 54.0007 348.668 54.7837C349.019 55.1626 349.211 55.5111 349.243 55.8292C349.243 55.9257 349.211 56.0418 349.147 56.1776L345.119 63.0436ZM355.477 64.8801C355.604 64.6407 355.796 64.4907 356.052 64.43C356.755 64.3516 357.459 64.6752 358.162 65.4009C358.481 65.7835 358.657 66.1498 358.689 66.5001C358.689 66.6287 358.673 66.727 358.641 66.7949C358.641 66.7949 358.082 68.4977 356.963 71.9033C355.812 75.9557 355.237 79.1238 355.237 81.4075C355.237 82.0187 355.285 82.5923 355.381 83.1284C357.395 82.1319 360.144 79.1074 363.628 74.055C363.948 73.569 364.252 73.117 364.539 72.699C365.978 70.5122 367.113 68.5361 367.944 66.7709L368.519 63.9566C368.615 63.7529 368.679 63.6493 368.711 63.6458C368.839 63.4063 369.031 63.2724 369.286 63.2439C370.054 63.1583 370.757 63.4981 371.396 64.2631C371.844 64.7921 372.051 65.364 372.019 65.9787C371.54 67.4796 371.3 68.2944 371.3 68.423C371.268 68.5874 371.252 68.7339 371.252 68.8626C371.252 69.2486 371.268 69.5524 371.3 69.774C371.62 69.9313 372.115 69.9726 372.787 69.8977C374.705 69.6839 377.086 68.9841 379.931 67.7984C380.027 67.7555 380.139 67.727 380.267 67.7127C381.002 67.6308 381.705 68.0187 382.377 68.8767C382.664 69.2306 382.808 69.5523 382.808 69.8417C382.744 70.1062 382.601 70.2991 382.377 70.4206C379.628 71.6277 377.294 72.3382 375.376 72.5521C373.042 72.7801 371.188 72.3436 369.814 71.2424C367.704 75.0158 365.322 78.4496 362.669 81.5438C360.176 84.395 358.178 85.9204 356.675 86.1201L356.579 86.1308C354.981 86.309 353.718 85.5331 352.791 83.8031C352.44 83.1347 352.2 82.4377 352.072 81.7121C352.008 81.3655 351.976 80.8383 351.976 80.1307C351.976 79.5195 352.008 78.8405 352.072 78.0936C352.168 77.3431 352.28 76.6069 352.408 75.885C352.536 75.131 352.679 74.3751 352.839 73.6175C353.031 72.8242 353.223 72.0791 353.415 71.3822C353.638 70.6818 353.846 69.9993 354.038 69.3346C354.23 68.6699 354.406 68.0713 354.566 67.5388C354.757 67.0028 354.917 66.5347 355.045 66.1344C355.173 65.7342 355.269 65.434 355.333 65.2339L355.477 64.8801ZM382.664 61.0285C382.792 60.8212 382.968 60.6891 383.192 60.6319C383.895 60.5535 384.646 60.904 385.446 61.6833C385.829 62.0909 386.037 62.4537 386.069 62.7718C386.069 62.8683 386.037 62.9683 385.973 63.072C383.192 69.3004 381.657 74.0711 381.37 77.384C381.338 77.6771 381.322 77.9522 381.322 78.2096C381.322 78.6599 381.386 79.1191 381.514 79.5874L381.61 79.5767C384.263 79.2808 388.195 76.1566 393.405 70.2041C394.748 68.6391 395.899 67.2242 396.858 65.9593C396.954 65.82 397.082 65.7414 397.241 65.7236C397.785 65.663 398.36 66.0813 398.968 66.9785C399.287 67.4575 399.447 67.89 399.447 68.276C399.415 68.4404 399.351 68.6244 399.255 68.8281C392.798 77.2677 387.603 81.771 383.671 82.3381C383.32 82.3773 382.872 82.3629 382.329 82.2948C380.794 82.0156 379.612 81.2308 378.78 79.9403C378.237 79.1003 377.965 77.9727 377.965 76.5574C377.965 73.1479 379.532 67.9716 382.664 61.0285ZM387.987 58.2639C387.859 58.439 387.683 58.5551 387.459 58.6122C386.756 58.6906 386.021 58.3544 385.254 57.6037C384.87 57.164 384.662 56.7851 384.63 56.467C384.63 56.3705 384.662 56.2544 384.726 56.1186L388.706 49.2579C388.834 49.0828 389.026 48.981 389.282 48.9525C390.017 48.8705 390.768 49.221 391.535 50.0039C391.887 50.3828 392.079 50.7314 392.111 51.0494C392.111 51.1459 392.079 51.2621 392.015 51.3979L387.987 58.2639ZM409.565 24.7866C409.756 24.2506 410.332 24.2025 411.291 24.6424C411.419 24.6924 411.515 24.73 411.579 24.755C412.474 25.2664 412.937 25.8419 412.969 26.4816C412.937 26.5817 412.921 26.6639 412.921 26.7282C412.921 26.7282 412.761 27.2124 412.442 28.1809C410.588 33.7591 408.893 38.9819 407.359 43.8491C425.644 39.9769 438.367 39.282 445.527 41.7644C446.454 42.0792 447.062 42.6226 447.349 43.3946C447.381 43.4876 447.413 43.5644 447.445 43.6252C447.541 44.097 447.334 44.3614 446.822 44.4184C446.566 44.4148 446.295 44.3646 446.007 44.2681C439.006 41.8321 425.772 42.8414 406.304 47.2958C405.569 49.6614 404.354 53.4476 402.66 58.6543C396.682 77.3332 392.974 89.8246 391.535 96.1285C390.64 100.12 390.257 102.913 390.384 104.507C390.416 105.05 390.081 105.281 389.377 105.198C389.154 105.159 388.946 105.102 388.754 105.027C387.827 104.68 387.236 104.135 386.98 103.391C386.948 103.266 386.932 103.171 386.932 103.107C386.644 99.5366 389.202 89.0551 394.604 71.6626C395.435 69.0289 396.698 65.0444 398.392 59.7091C400.054 54.506 401.253 50.7055 401.988 48.3077C399.367 48.9537 396.698 49.6534 393.981 50.4067C391.264 51.1278 388.898 51.7936 386.884 52.4042C384.838 52.9861 383 53.5288 381.37 54.0322C379.739 54.5356 378.477 54.9338 377.582 55.2265L376.287 55.6121C375.648 55.8442 374.912 55.5885 374.081 54.8449C373.985 54.7591 373.906 54.6876 373.842 54.6304C373.778 54.541 373.714 54.4677 373.65 54.4105C373.554 54.3247 373.49 54.2354 373.458 54.1424C373.394 54.0531 373.346 53.978 373.314 53.9172C373.282 53.8565 373.266 53.7939 373.266 53.7296C373.234 53.6366 373.218 53.558 373.218 53.4937C373.218 53.4294 373.234 53.3793 373.266 53.3436C373.266 53.2793 373.298 53.2275 373.362 53.1882C373.394 53.1203 373.442 53.0667 373.506 53.0274C373.538 52.9917 373.586 52.9702 373.65 52.9631C373.65 52.9631 373.81 52.9131 374.129 52.8131C384.071 49.6461 393.725 46.9775 403.091 44.8074C404.146 41.4411 405.217 38.0891 406.304 34.7514C407.391 31.3816 408.206 28.8783 408.749 27.2416L409.565 24.7866Z" fill="black"/>
</svg>
