<svg width="257" height="84" viewBox="0 0 257 84" fill="none" xmlns="http://www.w3.org/2000/svg">
<path d="M115.415 24.9082H111.748V7.00851H115.415V24.9082Z" fill="#162149"/>
<path d="M117.862 7.00851H119.216L128.781 17.2303L128.828 7.00851H132.475V24.9082H131.099L121.534 14.7069V24.9082H117.867V7.00851H117.862Z" fill="#162149"/>
<path d="M133.366 7.00851H137.45L142.235 19.0151L146.995 7.00851H151.059L143.59 24.9082H140.86L133.366 7.00851Z" fill="#162149"/>
<path d="M163.297 10.3577H155.478V14.271H162.009V17.6201H155.478V21.5591H163.297V24.9082H151.806V7.00851H163.297V10.3577Z" fill="#162149"/>
<path d="M170.498 10.2499C169.014 10.2294 168.118 11.1219 168.092 12.0963C168.092 14.1427 176.787 14.4659 176.787 19.5793C176.787 19.7537 176.766 19.9281 176.72 20.1025C176.457 22.6669 173.681 25.0826 170.364 25.0826C167.984 25.0826 165.208 23.4926 163.745 22.0822L166.192 19.9486C166.954 20.6872 168.638 21.4924 170.256 21.4924C171.894 21.4924 172.898 20.882 172.898 19.7075C172.898 17.1175 164.507 16.7687 164.487 12.1835C164.487 9.53191 166.867 6.83414 170.122 6.83414C172.177 6.83414 174.907 7.79323 176.107 9.44472L173.573 11.3834C172.594 10.3371 171.786 10.2705 170.498 10.2499Z" fill="#162149"/>
<path d="M176.792 7.00851H190.009V10.3577H185.25V24.9082H181.577V10.3577H176.792V7.00851Z" fill="#162149"/>
<path d="M121.112 33.1092H123.842L127.36 44.8338H127.401L130.285 33.1092H134.241L129.482 51.0089H125.897L122.467 40.2178L119.036 51.0089H115.456L110.692 33.1092H114.668L117.532 44.8338L121.112 33.1092Z" fill="#162149"/>
<path d="M139.505 51.0089H135.838V33.1092H139.505V51.0089Z" fill="#162149"/>
<path d="M140.968 33.1092H154.185V36.4584H149.426V51.0089H145.753V36.4584H140.968V33.1092Z" fill="#162149"/>
<path d="M169.277 51.0089H165.61V43.8952H159.733V51.0089H156.065V33.1092H159.733V40.2434H165.61V33.1092H169.277V51.0089Z" fill="#162149"/>
<path d="M179.589 32.9143C184.374 32.9143 188.33 37.1764 188.304 42.0488C188.304 46.9417 184.374 51.2089 179.563 51.2089C174.778 51.2089 170.802 46.9468 170.802 42.0488C170.802 37.1507 174.804 32.9348 179.589 32.9143ZM179.568 47.4238C182.365 47.4238 184.441 45.1158 184.441 42.0488C184.441 39.0022 182.365 36.6994 179.589 36.6994C176.792 36.6994 174.696 39.0074 174.696 42.0488C174.696 45.1158 176.792 47.4443 179.568 47.4238Z" fill="#162149"/>
<path d="M204.231 43.2233C204.231 43.7259 204.21 44.2029 204.164 44.6799C203.86 48.6804 201.192 51.2038 197.128 51.2038C193.064 51.1833 190.375 48.6804 190.071 44.6799C190.03 44.2029 190.004 43.7208 190.004 43.2233L190.025 33.1297H193.692L193.671 43.3772C193.671 46.316 194.918 47.5982 197.122 47.5982C199.306 47.5982 200.573 46.316 200.553 43.3772L200.573 33.1297H204.246L204.231 43.2233Z" fill="#162149"/>
<path d="M205.297 33.1092H218.514V36.4584H213.755V51.0089H210.082V36.4584H205.297V33.1092Z" fill="#162149"/>
<path d="M124.939 72.0013C124.939 74.8067 122.647 76.7659 119.804 77.0686C119.412 77.0891 118.995 77.1147 118.578 77.1147H111.743V59.2766L118.691 59.2561C121.859 59.2561 124.46 61.3435 124.46 64.4567C124.46 65.8723 123.847 67.0878 122.889 67.9802C124.151 68.9086 124.96 70.3241 124.939 72.0013ZM116.399 66.7801C117.12 66.7801 117.821 66.7596 118.475 66.7134C119.721 66.6057 120.638 65.9543 120.638 64.6055C120.638 63.2361 119.721 62.5591 118.475 62.4308C117.821 62.3847 117.12 62.3642 116.399 62.3642H115.523V66.7801H116.399ZM115.523 74.0425H116.44C117.357 74.0425 118.341 74.022 119.237 73.9143C120.396 73.7604 121.138 73.1091 121.117 71.8474C121.117 70.7139 120.442 70.0625 119.371 69.8882C118.258 69.6471 117.032 69.6471 116.136 69.6471H115.523V74.0425Z" fill="#162149"/>
<path d="M135.091 59.015C139.876 59.015 143.832 63.2771 143.806 68.1495C143.806 73.0424 139.876 77.3096 135.065 77.3096C130.28 77.3096 126.304 73.0475 126.304 68.1495C126.314 63.2566 130.311 59.0355 135.091 59.015ZM135.071 73.5194C137.868 73.5194 139.943 71.2114 139.943 68.1444C139.943 65.0978 137.868 62.795 135.091 62.795C132.294 62.795 130.198 65.1029 130.198 68.1444C130.198 71.2165 132.3 73.545 135.071 73.5194Z" fill="#162149"/>
<path d="M159.733 69.324C159.733 69.8266 159.712 70.3036 159.666 70.7806C159.362 74.7811 156.694 77.3045 152.63 77.3045C148.566 77.284 145.877 74.7811 145.573 70.7806C145.532 70.3036 145.506 69.8215 145.506 69.324L145.527 59.2304H149.194L149.173 69.4779C149.173 72.4116 150.42 73.6989 152.625 73.6989C154.808 73.6989 156.076 72.4167 156.055 69.4779L156.076 59.2304H159.748L159.733 69.324Z" fill="#162149"/>
<path d="M161.788 59.2099L163.163 59.2304L172.708 69.4317L172.754 59.2099H176.401V77.1096H175.025L165.46 66.9083V77.1096H161.793V59.2099H161.788Z" fill="#162149"/>
<path d="M183.828 59.2099C184.482 59.2099 185.137 59.2561 185.77 59.3382C189.705 59.8408 192.847 63.6259 192.847 68.1495C192.847 72.6937 189.721 76.4787 185.77 76.9814C185.137 77.0686 184.482 77.1096 183.802 77.1096H178.492V59.2304L183.828 59.2099ZM185.528 62.8412C184.503 62.6873 183.39 62.6001 182.164 62.6001V73.7143C183.39 73.7143 184.503 73.6271 185.528 73.4989C187.846 73.0629 189.025 71.0422 189.025 68.17C189.025 65.2979 187.846 63.2771 185.528 62.8412Z" fill="#162149"/>
<path d="M209.83 77.1096H205.874L204.411 73.4784H197.138L195.696 77.1096H191.719L199.255 59.2099H202.294L209.83 77.1096ZM200.764 64.6465L198.513 70.1292H203.036L200.764 64.6465Z" fill="#162149"/>
<path d="M217.695 59.2099C221.867 59.2766 223.68 61.9744 223.68 64.626C223.68 67.0622 221.846 68.7137 219.791 69.4779C221.321 70.955 224.118 75.6992 224.947 77.1352H220.842C219.987 75.853 218.287 72.1962 215.707 70.1087C215.202 70.1087 214.702 70.1292 214.285 70.1292V77.1096H210.618V59.2304L217.695 59.2099ZM217.041 66.8417C218.612 66.7134 219.905 65.9287 219.905 64.6875C219.905 63.3848 219.379 62.7745 217.875 62.5796C216.783 62.4257 215.557 62.3847 214.29 62.3847V66.9545C215.202 66.9545 216.145 66.9288 217.041 66.8417Z" fill="#162149"/>
<path d="M229.47 77.1096H225.802V59.2099H229.47V77.1096Z" fill="#162149"/>
<path d="M242.996 62.5591H235.177V66.4724H241.708V69.8215H235.177V73.7605H242.996V77.1096H231.504V59.2099H242.996V62.5591Z" fill="#162149"/>
<path d="M250.706 62.4513C249.223 62.4308 248.327 63.3232 248.301 64.2977C248.301 66.3441 256.996 66.6672 256.996 71.7807C256.996 71.9551 256.975 72.1295 256.929 72.3038C256.666 74.8683 253.89 77.284 250.573 77.284C248.193 77.284 245.417 75.694 243.954 74.2836L246.4 72.15C247.163 72.8885 248.847 73.6938 250.464 73.6938C252.102 73.6938 253.107 73.0834 253.107 71.9089C253.107 69.3189 244.716 68.9701 244.695 64.3849C244.695 61.7333 247.075 59.0355 250.33 59.0355C252.386 59.0355 255.116 59.9946 256.316 61.6461L253.782 63.5848C252.808 62.5385 251.999 62.4719 250.706 62.4513Z" fill="#162149"/>
<path d="M35.7834 55.3941L39.9658 60.5126C38.0446 62.518 35.3249 63.5181 31.8069 63.5181C28.1499 63.5181 25.2448 62.4462 23.0969 60.3075C20.949 58.1688 19.8725 55.3684 19.8725 51.9064V34.4991H13.537V28.6984H19.8725V17.0867H27.4854V28.6933H37.2256V34.4991H27.5524V51.9116C27.5524 55.3274 29.0358 57.0302 32.0078 57.0302C33.5634 57.0353 34.8202 56.4865 35.7834 55.3941Z" fill="#EC6725"/>
<path d="M59.7708 28.5189H63.1188V56.3583C63.1188 60.4972 61.8775 63.9541 59.4051 66.7237C56.9276 69.4881 53.7238 70.8729 49.7937 70.8729C46.4663 70.8729 43.5148 69.8369 40.9446 67.7648V63.5848C43.4788 66.221 46.5023 67.5392 50.0203 67.5392C52.7451 67.5392 55.0012 66.4929 56.7988 64.4054C58.5913 62.318 59.4927 59.6356 59.4927 56.3583V51.6705C56.9585 55.4351 53.5383 57.3174 49.2271 57.3174C45.3331 57.3174 42.1756 55.9069 39.7547 53.0809C37.3339 50.2601 36.1234 46.7776 36.1234 42.6335C36.1234 38.4535 37.3339 34.9658 39.7547 32.1604C42.1756 29.3549 45.3331 27.9547 49.2271 27.9547C53.6104 27.9547 57.0512 29.8729 59.5493 33.7144L59.7708 28.5189ZM49.7319 53.9836C52.1116 53.9836 54.2028 53.1579 56.0004 51.5012C57.798 49.8446 58.957 47.7367 59.4875 45.1774V40.0383C58.957 37.5149 57.7878 35.4274 55.9695 33.7708C54.1564 32.1142 52.0755 31.2885 49.7319 31.2885C46.7444 31.2885 44.3338 32.3706 42.5001 34.535C40.6664 36.6994 39.7496 39.4023 39.7496 42.6386C39.7496 45.839 40.6664 48.5316 42.5001 50.7114C44.3338 52.8963 46.7444 53.9836 49.7319 53.9836Z" fill="#162149"/>
<path d="M84.6132 44.8184C83.686 46.8443 82.2026 48.2393 80.1629 48.9984C78.118 49.7626 76.0834 49.6805 74.0488 48.7573C72.0143 47.8392 70.6184 46.3621 69.8509 44.326C69.0886 42.295 69.1659 40.2639 70.093 38.238C71.0202 36.2173 72.4985 34.8222 74.5433 34.058C76.583 33.299 78.6228 33.3759 80.6573 34.2991C82.6919 35.2223 84.0929 36.6994 84.8553 38.7304C85.6176 40.7666 85.5352 42.7976 84.6132 44.8184Z" fill="#EC6725"/>
<path d="M40.2234 82.141C34.5524 82.141 28.9019 80.9306 23.5863 78.5251C13.81 74.0938 6.3465 66.139 2.5761 56.1172C-1.18915 46.1006 -0.818289 35.2223 3.63202 25.4877C8.08232 15.7481 16.0712 8.3215 26.1359 4.56719C36.1955 0.81287 47.1204 1.18728 56.9018 5.6186C66.678 10.0499 74.1415 18.0048 77.9068 28.0214C78.1849 28.7651 77.8089 29.596 77.0621 29.8729C76.3152 30.1499 75.4808 29.7755 75.2026 29.0318C71.7052 19.7332 64.7774 12.3476 55.7016 8.23944C46.6259 4.1261 36.4839 3.78247 27.1455 7.26496C17.8071 10.7474 10.3899 17.6457 6.25893 26.6828C2.12798 35.7198 1.78287 45.8185 5.28028 55.1171C8.77768 64.4157 15.7055 71.8012 24.7813 75.9146C33.857 80.0279 43.999 80.3715 53.3374 76.889C63.8399 72.9706 71.9421 64.6619 75.5735 54.0862C75.831 53.3323 76.65 52.9322 77.4072 53.1886C78.1643 53.4451 78.5661 54.2606 78.3086 55.0145C74.3991 66.4057 65.6684 75.3658 54.3521 79.5817C49.7576 81.2845 44.9828 82.141 40.2234 82.141Z" fill="#EC6725"/>
<path d="M96.5889 2.00278V82.141" stroke="#EC6725" stroke-width="3.6311" stroke-miterlimit="10" stroke-linecap="round" stroke-linejoin="round"/>
</svg>
