<svg width="316" height="39" viewBox="0 0 316 39" fill="none" xmlns="http://www.w3.org/2000/svg">
<path d="M20.0177 14.2603L0 39L29.8752 19.9263L20.0177 14.2603Z" fill="#005CB9"/>
<path d="M63.1036 39L31.5574 0L21.498 12.4315L63.1036 39Z" fill="#0B7FC9"/>
<path d="M31.7032 20.9698L0 39H63.1036L31.7032 20.9698Z" fill="#5C97D4"/>
<path d="M68.1948 10.3783H81.5848V13.3291H76.7178V28.6329H73.0619V13.3403H68.1948V10.3783Z" fill="#6D6E70"/>
<path d="M101.614 28.8236C96.4664 28.8236 92.2498 24.9528 92.2498 19.4551C92.2498 13.9911 96.4552 10.1202 101.614 10.1202C106.817 10.1202 110.944 13.9911 110.944 19.4551C110.955 24.9528 106.795 28.8236 101.614 28.8236ZM101.614 25.5587C104.911 25.5587 107.187 23.1801 107.187 19.4663C107.187 15.7526 104.911 13.4189 101.614 13.4189C98.2943 13.4189 96.0178 15.7526 96.0178 19.4663C96.0178 23.1801 98.2943 25.5587 101.614 25.5587Z" fill="#6D6E70"/>
<path d="M128.371 10.3783C132.767 10.3783 134.965 12.914 134.965 15.977C134.965 18.1985 133.732 20.4537 130.805 21.2391L135.167 28.6441H130.928L126.902 21.5308H125.175V28.6441H121.519V10.3783H128.371ZM128.237 13.4189H125.175V18.7819H128.237C130.278 18.7819 131.186 17.7048 131.186 16.0555C131.197 14.4399 130.278 13.4189 128.237 13.4189Z" fill="#6D6E70"/>
<path d="M165.513 20.0834H155.6V28.6441H153.772V10.3559H155.6V18.5688H165.513V10.3559H167.341V28.6441H165.513V20.0834Z" fill="#6D6E70"/>
<path d="M188.626 28.8236C183.501 28.8236 179.576 24.9752 179.576 19.4888C179.576 14.0247 183.501 10.1539 188.626 10.1539C193.774 10.1539 197.676 14.0247 197.676 19.4888C197.676 24.9752 193.785 28.8236 188.626 28.8236ZM188.626 27.2304C192.675 27.2304 195.792 24.2684 195.792 19.4888C195.792 14.7091 192.675 11.7695 188.626 11.7695C184.578 11.7695 181.46 14.6979 181.46 19.4888C181.46 24.2796 184.578 27.2304 188.626 27.2304Z" fill="#6D6E70"/>
<path d="M211.751 10.3559V27.1519H218.311V28.6441H209.911V10.3559H211.751Z" fill="#6D6E70"/>
<path d="M244.912 19.5337C244.912 25.2109 241.334 28.6441 235.233 28.6441H229.817V10.3559H235.233C241.334 10.3559 244.912 13.8116 244.912 19.5337ZM235.233 27.1295C240.415 27.1295 243.05 24.246 243.05 19.5449C243.05 14.8101 240.403 11.8818 235.233 11.8818H231.656V27.1407H235.233V27.1295Z" fill="#6D6E70"/>
<path d="M257.18 10.3559H259.008V28.6441H257.18V10.3559Z" fill="#6D6E70"/>
<path d="M285.844 10.3559V28.6441H284.016L273.901 13.2618V28.6441H272.073V10.3559H273.901L284.016 25.7158V10.3559H285.844Z" fill="#6D6E70"/>
<path d="M315.428 15.6965H313.286C312.265 13.3403 310.045 11.8257 307.118 11.8257C303.069 11.8257 299.952 14.754 299.952 19.4888C299.952 24.2235 303.058 27.1856 307.118 27.1856C310.964 27.1856 313.79 24.5938 314.071 20.4312H306.378V18.939H316V20.2742C315.708 25.1099 312.108 28.8349 307.107 28.8349C301.982 28.8349 298.057 24.9865 298.057 19.5C298.057 14.036 301.982 10.1651 307.107 10.1651C311.032 10.1427 314.116 12.2071 315.428 15.6965Z" fill="#6D6E70"/>
</svg>
