<svg xmlns="http://www.w3.org/2000/svg" viewBox="0 0 667.28 82.32"><defs><style>.cls-1{fill:#005cb9;}.cls-2{fill:#0b7fc9;}.cls-3{fill:#5c97d4;}.cls-4{fill:#6d6e71;}</style></defs><g id="Layer_2" data-name="Layer 2"><g id="Layer_1-2" data-name="Layer 1"><polygon class="cls-1" points="42.27 30.1 0 82.32 63.09 42.05 42.27 30.1"></polygon><polygon class="cls-2" points="133.26 82.32 66.63 0 45.4 26.23 133.26 82.32"></polygon><polygon class="cls-3" points="66.95 44.27 0 82.32 0 82.32 133.26 82.32 66.95 44.27"></polygon><path class="cls-4" d="M144,21.91h28.27v6.24H162v32.3h-7.73V28.15H144Z"></path><path class="cls-4" d="M214.58,60.84a19.37,19.37,0,0,1-19.77-19.77,19.36,19.36,0,0,1,19.77-19.71c11,0,19.71,8.17,19.71,19.71A19.29,19.29,0,0,1,214.58,60.84Zm0-6.9c7,0,11.76-5,11.76-12.87s-4.8-12.76-11.76-12.76-11.82,4.92-11.82,12.76S207.57,53.94,214.58,53.94Z"></path><path class="cls-4" d="M271.08,21.91c9.27,0,13.91,5.35,13.91,11.82,0,4.69-2.59,9.44-8.78,11.09l9.22,15.63h-8.94l-8.51-15h-3.64v15h-7.73V21.91Zm-.28,6.4h-6.46V39.63h6.46c4.31,0,6.24-2.26,6.24-5.74S275.11,28.31,270.8,28.31Z"></path><path class="cls-4" d="M349.5,42.4H328.58V60.45h-3.87V21.85h3.87V39.19H349.5V21.85h3.87v38.6H349.5Z"></path><path class="cls-4" d="M398.33,60.84c-10.83,0-19.11-8.12-19.11-19.71s8.28-19.72,19.11-19.72,19.1,8.18,19.1,19.72S409.2,60.84,398.33,60.84Zm0-3.37c8.55,0,15.13-6.24,15.13-16.34s-6.58-16.29-15.13-16.29S383.19,31,383.19,41.13,389.77,57.47,398.33,57.47Z"></path><path class="cls-4" d="M447.15,21.85V57.31H461v3.14H443.28V21.85Z"></path><path class="cls-4" d="M517.17,41.24c0,12-7.56,19.21-20.43,19.21H485.31V21.85h11.43C509.61,21.85,517.17,29.14,517.17,41.24Zm-20.43,16c10.94,0,16.51-6.07,16.51-16s-5.57-16.18-16.51-16.18h-7.56V57.25Z"></path><path class="cls-4" d="M543.08,21.85h3.86v38.6h-3.86Z"></path><path class="cls-4" d="M603.6,21.85v38.6h-3.86L578.37,28V60.45H574.5V21.85h3.87l21.37,32.42V21.85Z"></path><path class="cls-4" d="M666.07,33.12h-4.53c-2.16-5-6.85-8.17-13-8.17-8.56,0-15.13,6.18-15.13,16.18S640,57.36,648.51,57.36c8.11,0,14.08-5.46,14.69-14.24H647V40h20.32v2.81c-.61,10.22-8.23,18.06-18.77,18.06-10.83,0-19.11-8.12-19.11-19.71s8.28-19.72,19.11-19.72C656.79,21.41,663.31,25.78,666.07,33.12Z"></path></g></g></svg>
