<svg width="249" height="48" viewBox="0 0 249 48" fill="none" xmlns="http://www.w3.org/2000/svg">
<path d="M17.9317 31.0045L21.3088 35.1443C19.7619 36.7566 17.5613 37.5846 14.7288 37.5846C11.7874 37.5846 9.43427 36.713 7.71301 34.9918C5.99174 33.2705 5.12022 31.0045 5.12022 28.1939V14.0969H0V9.3907H5.09843V0H11.2209V9.3907H19.0646V14.0969H11.2863V28.1939C11.2863 30.961 12.4846 32.3336 14.8813 32.3336C16.145 32.3336 17.1473 31.8761 17.9317 31.0045Z" fill="#EC6725"/>
<path d="M37.6717 8.84598C40.5477 8.84598 42.7701 9.52141 44.3606 10.8941L41.441 15.2517C40.3298 14.5981 38.979 14.2494 37.3448 14.2494C35.3839 14.2494 33.6844 14.9902 32.2246 16.4936C30.7648 17.997 30.0458 19.8926 30.0458 22.2021V37.0181H23.9233V9.39068H29.5011L29.8279 13.2472C32.0285 10.3058 34.6431 8.84598 37.6717 8.84598Z" fill="#EC6725"/>
<path d="M67.7177 23.4223C67.7177 24.1848 67.6741 24.7731 67.6087 25.1435H48.0429C48.5876 29.8933 51.0715 32.2682 55.4945 32.2682C57.0415 32.2682 58.327 31.9632 59.351 31.3314C60.375 30.6995 61.4427 29.5229 62.5539 27.8017L66.8025 30.7866C64.4059 35.3186 60.5493 37.5846 55.2548 37.5846C51.1587 37.5846 47.934 36.2555 45.5591 33.5973C43.1842 30.9392 41.9858 27.4966 41.9858 23.2697C41.9858 19.0428 43.1842 15.5785 45.5809 12.8768C47.9776 10.1968 51.2022 8.84598 55.2548 8.84598C59.1549 8.84598 62.2052 10.1751 64.4058 12.855C66.6282 15.5132 67.7177 19.0428 67.7177 23.4223ZM55.4073 14.0969C51.3983 14.0969 49.0016 16.2104 48.2172 20.4591H62.2052C61.617 16.2104 59.351 14.0969 55.4073 14.0969Z" fill="#EC6725"/>
<path d="M104.06 8.84598C107.111 8.84598 109.595 9.82645 111.512 11.7656C113.429 13.7265 114.388 16.2322 114.388 19.3261V37.0181H108.2V20.0669C108.2 18.411 107.655 17.0383 106.566 15.9271C105.477 14.8159 104.104 14.2712 102.448 14.2712C100.683 14.2712 99.2016 14.8813 98.025 16.0579C96.8484 17.2562 96.2602 18.716 96.2602 20.4591V37.0399H90.0723V20.0669C90.0723 18.411 89.5276 17.0383 88.4382 15.9271C87.3488 14.8159 85.9762 14.2712 84.3203 14.2712C82.599 14.2712 81.1174 14.8813 79.8973 16.0579C78.6771 17.2562 78.0671 18.716 78.0671 20.4591V37.0399H71.9446V9.39068H77.5224L77.8056 12.3757C79.9844 10.0225 82.7079 8.84598 85.9761 8.84598C89.8762 8.84598 92.7741 10.3711 94.6478 13.4433C96.9574 10.3711 100.073 8.84598 104.06 8.84598Z" fill="#EC6725"/>
<path d="M137.113 12.855H139.815V35.3622C139.815 38.7176 138.812 41.5065 136.83 43.7506C134.825 45.9948 132.254 47.106 129.095 47.106C126.415 47.106 124.04 46.2781 121.97 44.6004V41.2232C124.018 43.3585 126.437 44.4261 129.269 44.4261C131.47 44.4261 133.278 43.5763 134.716 41.8987C136.154 40.1992 136.895 38.0422 136.895 35.384V31.5929C134.847 34.6432 132.102 36.1684 128.637 36.1684C125.5 36.1684 122.951 35.0354 121.011 32.7476C119.072 30.4599 118.092 27.6492 118.092 24.2938C118.092 20.9167 119.072 18.0842 121.011 15.8182C122.951 13.5523 125.5 12.4193 128.637 12.4193C132.167 12.4193 134.934 13.9662 136.939 17.0819L137.113 12.855ZM129.029 33.4449C130.947 33.4449 132.624 32.7694 134.084 31.4403C135.522 30.1113 136.459 28.39 136.895 26.3201V22.1586C136.459 20.1105 135.522 18.4328 134.063 17.0819C132.603 15.7529 130.925 15.0774 129.029 15.0774C126.633 15.0774 124.694 15.949 123.212 17.7138C121.73 19.4569 120.99 21.6575 120.99 24.272C120.99 26.8648 121.73 29.0436 123.212 30.8085C124.694 32.5733 126.633 33.4449 129.029 33.4449Z" fill="#162149"/>
<path d="M149.467 36.1466C147.636 36.1466 146.177 35.6018 145.087 34.5124C143.998 33.423 143.453 31.985 143.453 30.2202V1.43802H146.416L146.46 30.1984C146.46 31.266 146.721 32.0722 147.266 32.6387C147.789 33.2051 148.552 33.4884 149.532 33.4884C150.534 33.4884 151.34 33.1616 151.951 32.5297L153.65 34.5778C152.604 35.6236 151.21 36.1466 149.467 36.1466Z" fill="#162149"/>
<path d="M172.475 32.7258C170.427 35.0136 167.769 36.1466 164.544 36.1466C161.32 36.1466 158.683 35.0136 156.635 32.7258C154.587 30.4381 153.585 27.6274 153.585 24.272C153.585 20.9167 154.609 18.106 156.635 15.8182C158.683 13.5305 161.298 12.3975 164.544 12.3975C167.769 12.3975 170.405 13.5305 172.475 15.8182C174.545 18.106 175.547 20.9167 175.547 24.272C175.547 27.6274 174.523 30.4381 172.475 32.7258ZM158.727 30.8085C160.208 32.5733 162.147 33.4666 164.544 33.4666C166.941 33.4666 168.88 32.5733 170.362 30.8085C171.843 29.0436 172.584 26.8648 172.584 24.272C172.584 21.6575 171.843 19.4786 170.362 17.7138C168.88 15.9707 166.941 15.0992 164.544 15.0992C162.147 15.0992 160.208 15.9707 158.727 17.7138C157.245 19.4569 156.504 21.6575 156.504 24.272C156.504 26.8648 157.245 29.0436 158.727 30.8085Z" fill="#162149"/>
<path d="M190.232 12.3975C193.37 12.3975 195.919 13.5304 197.858 15.7964C199.797 18.0624 200.778 20.8948 200.778 24.272C200.778 27.6274 199.797 30.4381 197.858 32.7258C195.919 35.0136 193.37 36.1466 190.232 36.1466C186.659 36.1466 183.892 34.6214 181.866 31.571L181.779 35.689H179.033V1.43802H181.996V16.8205C183.957 13.8791 186.703 12.3975 190.232 12.3975ZM189.818 33.4448C192.215 33.4448 194.154 32.5515 195.636 30.7867C197.117 29.0218 197.858 26.843 197.858 24.2502C197.858 21.6356 197.117 19.4568 195.636 17.692C194.154 15.9489 192.215 15.0556 189.818 15.0556C187.836 15.0556 186.136 15.7093 184.72 17.0166C183.304 18.3238 182.389 20.0233 181.996 22.0932V26.3855C182.389 28.4553 183.304 30.1548 184.72 31.4621C186.136 32.7912 187.836 33.4448 189.818 33.4448Z" fill="#162149"/>
<path d="M213.132 12.3975C215.812 12.3975 217.991 13.1165 219.69 14.5545C221.389 15.9925 222.217 18.0624 222.217 20.7641V35.689H219.516L219.385 31.9415C216.487 34.7521 213.459 36.1466 210.299 36.1466C208.251 36.1466 206.595 35.4929 205.288 34.1856C204.003 32.8784 203.349 31.2007 203.349 29.1526C203.349 26.843 204.286 25.0564 206.16 23.7927C208.033 22.529 210.888 22.2675 214.722 23.0301L219.298 23.9016V20.6116C219.298 18.7161 218.71 17.3216 217.533 16.3847C216.356 15.4478 214.831 14.9903 212.936 14.9903C209.733 14.9903 207.489 16.1668 206.181 18.4982L204.09 16.668C205.855 13.8355 208.883 12.3975 213.132 12.3975ZM210.953 33.4448C213.764 33.4448 216.531 32.0286 219.32 29.1962V26.233L214.809 25.2743C211.912 24.686 209.798 24.795 208.469 25.5793C207.14 26.3637 206.465 27.4967 206.465 29.0219C206.465 30.3291 206.879 31.3968 207.707 32.2247C208.491 33.0309 209.58 33.4448 210.953 33.4448Z" fill="#162149"/>
<path d="M232.48 36.1466C230.649 36.1466 229.19 35.6018 228.1 34.5124C227.011 33.423 226.466 31.985 226.466 30.2202V1.43802H229.429L229.473 30.1984C229.473 31.266 229.734 32.0722 230.279 32.6387C230.802 33.2051 231.564 33.4884 232.545 33.4884C233.547 33.4884 234.353 33.1616 234.963 32.5297L236.663 34.5778C235.617 35.6236 234.223 36.1466 232.48 36.1466Z" fill="#162149"/>
<path d="M247.012 34.665C246.032 35.6454 244.877 36.1248 243.526 36.1248C242.175 36.1248 241.021 35.6454 240.04 34.665C239.06 33.6845 238.58 32.5297 238.58 31.1789C238.58 29.828 239.06 28.6732 240.04 27.6927C241.021 26.7123 242.175 26.2329 243.526 26.2329C244.877 26.2329 246.032 26.7123 247.012 27.6927C247.993 28.6732 248.472 29.828 248.472 31.1789C248.494 32.5297 247.993 33.7063 247.012 34.665Z" fill="#EC6725"/>
<path d="M143.279 40.5478C143.279 40.3081 143.497 40.112 143.715 40.112C143.954 40.112 144.15 40.3081 144.15 40.5478C144.15 40.7874 143.954 40.9835 143.715 40.9835C143.497 40.9835 143.279 40.7874 143.279 40.5478ZM143.431 41.8333H144.02V46.3434H143.431V41.8333Z" fill="#162149"/>
<path d="M149.467 43.511V46.3652H148.878V43.5545C148.878 42.8355 148.312 42.2908 147.571 42.2908C146.83 42.2908 146.242 42.8791 146.242 43.5981V46.3652H145.654V41.8333H146.199L146.22 42.5087C146.547 42.0294 147.092 41.7461 147.724 41.7461C148.704 41.7461 149.467 42.5087 149.467 43.511Z" fill="#162149"/>
<path d="M154.282 41.8333L152.474 46.3652H151.885L150.077 41.8333H150.731L152.19 45.6462L153.65 41.8333H154.282Z" fill="#162149"/>
<path d="M158.966 44.2953H155.349C155.415 45.254 155.981 45.9295 156.94 45.9295C157.528 45.9295 157.92 45.7116 158.269 45.1669L158.683 45.4719C158.313 46.1038 157.724 46.4742 156.918 46.4742C155.611 46.4742 154.783 45.4501 154.783 44.121C154.783 42.792 155.611 41.7679 156.918 41.7679C158.182 41.7679 158.988 42.7266 158.988 44.0775C158.966 44.1428 158.966 44.2082 158.966 44.2953ZM155.349 43.8378H158.422C158.334 42.9227 157.79 42.269 156.896 42.269C156.003 42.269 155.437 42.9227 155.349 43.8378Z" fill="#162149"/>
<path d="M159.62 45.6898L159.969 45.3194C160.187 45.668 160.818 45.9512 161.407 45.9512C162.017 45.9512 162.518 45.6898 162.518 45.1669C162.518 44.6222 161.908 44.4696 161.298 44.2953C160.601 44.0992 159.86 43.8596 159.86 43.0316C159.86 42.2255 160.666 41.7679 161.45 41.7679C162.017 41.7679 162.605 41.9858 162.91 42.269L162.562 42.683C162.322 42.4216 161.908 42.269 161.559 42.2473C161.036 42.2255 160.47 42.4433 160.47 42.9445C160.47 43.4892 161.015 43.6635 161.603 43.816C162.322 44.0121 163.128 44.23 163.128 45.1233C163.128 45.9077 162.387 46.4524 161.429 46.4524C160.688 46.4524 159.925 46.1255 159.62 45.6898Z" fill="#162149"/>
<path d="M166.352 46.1473C166.156 46.3434 165.873 46.4524 165.525 46.4524C164.806 46.4524 164.326 45.973 164.326 45.2758V42.3126H163.694V41.8333H164.326V40.3081H164.914V41.8551H166.091V42.3344H164.936V45.2976C164.936 45.7116 165.176 45.9512 165.546 45.9512C165.742 45.9512 165.895 45.9077 166.026 45.7551L166.352 46.1473Z" fill="#162149"/>
<path d="M174.981 41.8333L173.434 46.3652H172.78L171.908 43.9032L171.08 46.3652H170.427L168.88 41.8333H169.534L170.775 45.6462L171.625 43.097L171.189 41.8333H171.778L173.063 45.668L174.327 41.8333H174.981Z" fill="#162149"/>
<path d="M175.83 40.5478C175.83 40.3081 176.048 40.112 176.266 40.112C176.506 40.112 176.702 40.3081 176.702 40.5478C176.702 40.7874 176.506 40.9835 176.266 40.9835C176.026 40.9835 175.83 40.7874 175.83 40.5478ZM175.983 41.8333H176.571V46.3434H175.983V41.8333Z" fill="#162149"/>
<path d="M180.166 46.1473C179.97 46.3434 179.687 46.4524 179.338 46.4524C178.619 46.4524 178.14 45.973 178.14 45.2758V42.3126H177.508V41.8333H178.14V40.3081H178.728V41.8551H179.883V42.3344H178.728V45.2976C178.728 45.7116 178.968 45.9512 179.338 45.9512C179.534 45.9512 179.687 45.9077 179.818 45.7551L180.166 46.1473Z" fill="#162149"/>
<path d="M184.785 43.511V46.3652H184.197V43.5546C184.197 42.8355 183.631 42.2908 182.89 42.2908C182.149 42.2908 181.561 42.8791 181.561 43.5981V46.3652H180.972V39.5891H181.561V42.5087C181.888 42.0512 182.41 41.7679 183.042 41.7679C184.023 41.7461 184.785 42.5087 184.785 43.511Z" fill="#162149"/>
<path d="M185.853 44.0992C185.853 42.792 186.725 41.7461 188.032 41.7461C189.339 41.7461 190.211 42.792 190.211 44.0992C190.211 45.4065 189.339 46.4524 188.032 46.4524C186.746 46.4524 185.853 45.4065 185.853 44.0992ZM189.622 44.0992C189.622 43.097 189.012 42.2908 188.032 42.2908C187.073 42.2908 186.441 43.097 186.441 44.0992C186.441 45.1015 187.073 45.9077 188.032 45.9077C189.012 45.9295 189.622 45.1015 189.622 44.0992Z" fill="#162149"/>
<path d="M195.157 41.8333V46.3434H194.612L194.568 45.6462C194.241 46.1255 193.697 46.4306 193.087 46.4306C192.084 46.4306 191.3 45.6462 191.3 44.644V41.8115H191.888V44.5786C191.888 45.2976 192.477 45.8859 193.196 45.8859C193.915 45.8859 194.525 45.2976 194.525 44.5786V41.8333H195.157Z" fill="#162149"/>
<path d="M198.73 46.1473C198.534 46.3434 198.251 46.4524 197.902 46.4524C197.183 46.4524 196.704 45.973 196.704 45.2758V42.3126H196.094V41.8333H196.725V40.3081H197.314V41.8551H198.468V42.3344H197.314V45.2976C197.314 45.7116 197.553 45.9512 197.924 45.9512C198.12 45.9512 198.272 45.9077 198.403 45.7551L198.73 46.1473Z" fill="#162149"/>
<path d="M206.138 44.0993C206.138 45.4065 205.31 46.4524 204.046 46.4524C203.327 46.4524 202.761 46.1038 202.39 45.5591L202.368 46.3652H201.824V39.5891H202.412V42.6395C202.761 42.1165 203.327 41.7679 204.046 41.7679C205.332 41.7461 206.138 42.792 206.138 44.0993ZM205.571 44.0993C205.571 43.097 204.961 42.2908 203.981 42.2908C203.196 42.2908 202.586 42.8791 202.434 43.6853V44.535C202.586 45.3412 203.175 45.9295 203.981 45.9295C204.961 45.9295 205.571 45.1015 205.571 44.0993Z" fill="#162149"/>
<path d="M206.9 44.0992C206.9 42.792 207.772 41.7461 209.079 41.7461C210.386 41.7461 211.258 42.792 211.258 44.0992C211.258 45.4065 210.386 46.4524 209.079 46.4524C207.772 46.4524 206.9 45.4065 206.9 44.0992ZM210.67 44.0992C210.67 43.097 210.06 42.2908 209.079 42.2908C208.121 42.2908 207.489 43.097 207.489 44.0992C207.489 45.1015 208.121 45.9077 209.079 45.9077C210.06 45.9295 210.67 45.1015 210.67 44.0992Z" fill="#162149"/>
<path d="M216.204 41.8333V46.3434H215.659L215.616 45.6462C215.289 46.1255 214.744 46.4306 214.134 46.4306C213.132 46.4306 212.347 45.6462 212.347 44.644V41.8115H212.936V44.5786C212.936 45.2976 213.524 45.8859 214.243 45.8859C214.984 45.8859 215.572 45.2976 215.572 44.5786V41.8333H216.204Z" fill="#162149"/>
<path d="M221.477 43.511V46.3652H220.888V43.5545C220.888 42.8355 220.322 42.2908 219.581 42.2908C218.84 42.2908 218.252 42.8791 218.252 43.5981V46.3652H217.664V41.8333H218.208L218.23 42.5087C218.557 42.0294 219.102 41.7461 219.733 41.7461C220.714 41.7461 221.477 42.5087 221.477 43.511Z" fill="#162149"/>
<path d="M226.858 39.5891V46.3652H226.335L226.292 45.559C225.921 46.1037 225.355 46.4523 224.658 46.4523C223.394 46.4523 222.566 45.4065 222.566 44.0992C222.566 42.7919 223.394 41.7461 224.658 41.7461C225.355 41.7461 225.921 42.0947 226.292 42.6176V39.5673H226.858V39.5891ZM226.27 44.535V43.6853C226.117 42.8791 225.507 42.2908 224.723 42.2908C223.764 42.2908 223.132 43.097 223.132 44.0992C223.132 45.1015 223.764 45.9076 224.723 45.9076C225.529 45.9294 226.117 45.3412 226.27 44.535Z" fill="#162149"/>
<path d="M231.717 43.402V46.3652H231.194L231.172 45.6244C230.649 46.1473 230.018 46.4524 229.364 46.4524C228.558 46.4524 227.991 45.8641 227.991 45.0797C227.991 44.2736 228.601 43.5328 230.235 43.8596L231.129 44.0339V43.3802C231.129 42.5959 230.584 42.269 229.865 42.269C229.277 42.269 228.776 42.5087 228.536 42.9663L228.122 42.5959C228.427 42.0729 229.059 41.7461 229.909 41.7461C230.933 41.7461 231.717 42.2908 231.717 43.402ZM231.15 45.0797V44.4914L230.257 44.2953C229.015 44.0339 228.601 44.5132 228.601 45.0361C228.601 45.5591 228.95 45.9077 229.495 45.9077C230.083 45.9295 230.628 45.6026 231.15 45.0797Z" fill="#162149"/>
<path d="M235.966 41.964L235.682 42.3998C235.574 42.3562 235.356 42.2908 235.072 42.2908C234.375 42.2908 233.743 42.9009 233.743 43.7288V46.3652H233.155V41.8333H233.7L233.722 42.5741C234.048 42.0729 234.549 41.7461 235.094 41.7461C235.508 41.7461 235.748 41.8115 235.966 41.964Z" fill="#162149"/>
<path d="M236.576 40.5478C236.576 40.3081 236.794 40.112 237.011 40.112C237.251 40.112 237.447 40.3081 237.447 40.5478C237.447 40.7874 237.251 40.9835 237.011 40.9835C236.794 40.9835 236.576 40.7874 236.576 40.5478ZM236.728 41.8333H237.316V46.3434H236.728V41.8333Z" fill="#162149"/>
<path d="M242.785 44.2953H239.169C239.234 45.254 239.8 45.9295 240.759 45.9295C241.347 45.9295 241.74 45.7116 242.088 45.1669L242.502 45.4719C242.132 46.1038 241.543 46.4742 240.737 46.4742C239.43 46.4742 238.602 45.4501 238.602 44.121C238.602 42.792 239.43 41.7679 240.737 41.7679C242.001 41.7679 242.807 42.7266 242.807 44.0775C242.807 44.1428 242.807 44.2082 242.785 44.2953ZM239.169 43.8378H242.241C242.154 42.9227 241.609 42.269 240.716 42.269C239.844 42.269 239.277 42.9227 239.169 43.8378Z" fill="#162149"/>
<path d="M243.461 45.6898L243.81 45.3194C244.027 45.668 244.659 45.9512 245.248 45.9512C245.858 45.9512 246.359 45.6898 246.359 45.1669C246.359 44.6222 245.749 44.4696 245.139 44.2953C244.463 44.0992 243.701 43.8596 243.701 43.0316C243.701 42.2255 244.507 41.7679 245.291 41.7679C245.858 41.7679 246.446 41.9858 246.751 42.269L246.402 42.683C246.163 42.4216 245.749 42.269 245.4 42.2473C244.877 42.2255 244.311 42.4433 244.311 42.9445C244.311 43.4892 244.855 43.6635 245.444 43.816C246.163 44.0121 246.969 44.23 246.969 45.1233C246.969 45.9077 246.228 46.4524 245.269 46.4524C244.529 46.4524 243.744 46.1255 243.461 45.6898Z" fill="#162149"/>
</svg>
