
<svg xmlns="http://www.w3.org/2000/svg" viewBox="0 0 285.67 54.15"><path d="M20.6 35.64l3.87 4.76q-2.67 2.8-7.56 2.8a10.91 10.91 0 0 1-8.07-3 10.55 10.55 0 0 1-3-7.81V16.2H0v-5.4h5.87V0h7.05v10.8h9v5.4H13v16.2q0 4.76 4.13 4.76a4.45 4.45 0 0 0 3.48-1.52zm22.7-25.48c3.3 0 5.87.8 7.7 2.35l-3.37 5a9 9 0 0 0-4.7-1.14A8 8 0 0 0 37.06 19a9 9 0 0 0-2.51 6.58v17h-7V10.8h6.4l.38 4.45q3.76-5.1 8.97-5.1zm34.56 16.78a10.4 10.4 0 0 1-.13 2h-22.5q1 8.2 8.58 8.2A8.45 8.45 0 0 0 68.27 36 12.59 12.59 0 0 0 72 32l4.9 3.43q-4.17 7.77-13.32 7.77-7.05 0-11.15-4.58c-2.73-3-4.1-7-4.1-11.88s1.38-8.85 4.13-11.94a14.15 14.15 0 0 1 11.12-4.64q6.72 0 10.5 4.6 3.8 4.6 3.78 12.17zM63.7 16.2q-6.9 0-8.26 7.3H71.5q-1.02-7.3-7.82-7.3zm55.94-6.04a11.49 11.49 0 0 1 8.57 3.37 11.92 11.92 0 0 1 3.3 8.7v20.33h-7.1v-19.5a6.54 6.54 0 0 0-1.87-4.76 6.38 6.38 0 0 0-4.74-1.91 6.87 6.87 0 0 0-5.08 2.06 7 7 0 0 0-2 5.05v19.06h-7.12v-19.5a6.5 6.5 0 0 0-1.87-4.76A6.37 6.37 0 0 0 97 16.39a7 7 0 0 0-5.09 2.06 6.85 6.85 0 0 0-2.09 5.05v19.06h-7V10.8h6.4l.32 3.43a12.25 12.25 0 0 1 9.4-4.07q6.74 0 10 5.28a12.73 12.73 0 0 1 10.69-5.28z" fill="#ee6725"/><path d="M157.64 14.77h3.1v25.9a14 14 0 0 1-3.44 9.63 11.38 11.38 0 0 1-8.9 3.86 12.63 12.63 0 0 1-8.19-2.89V47.4a11.24 11.24 0 0 0 8.4 3.67 7.94 7.94 0 0 0 6.28-2.91 11.11 11.11 0 0 0 2.49-7.48V36.3a11.45 11.45 0 0 1-18.27 1.31 14.43 14.43 0 0 1-3.36-9.71 14.42 14.42 0 0 1 3.36-9.74 11 11 0 0 1 8.77-3.91 10.8 10.8 0 0 1 9.55 5.35zm-9.3 23.68a8.26 8.26 0 0 0 5.8-2.31 10.76 10.76 0 0 0 3.23-5.88v-4.78a10.63 10.63 0 0 0-3.25-5.82 8.67 8.67 0 0 0-12.47.71 11.26 11.26 0 0 0-2.55 7.53 11.31 11.31 0 0 0 2.55 7.51 8.29 8.29 0 0 0 6.69 3.04zm23.5 3.1a6.81 6.81 0 0 1-5-1.89 6.69 6.69 0 0 1-1.89-4.94V1.65h3.42v33.07a3.93 3.93 0 0 0 .92 2.81 3.39 3.39 0 0 0 2.6 1 3.65 3.65 0 0 0 2.78-1.1l1.94 2.36a6.46 6.46 0 0 1-4.77 1.76zm26.44-3.95a12.47 12.47 0 0 1-18.19 0 14 14 0 0 1-3.52-9.71 14 14 0 0 1 3.52-9.71 12.47 12.47 0 0 1 18.19 0 14 14 0 0 1 3.54 9.71 14 14 0 0 1-3.54 9.71zm-15.8-2.2a8.89 8.89 0 0 0 13.39 0 11.36 11.36 0 0 0 2.54-7.51 11.3 11.3 0 0 0-2.54-7.53 8.93 8.93 0 0 0-13.39 0 11.26 11.26 0 0 0-2.55 7.53 11.31 11.31 0 0 0 2.55 7.51zm36.22-21.15a11 11 0 0 1 8.77 3.91 14.42 14.42 0 0 1 3.36 9.74 14.43 14.43 0 0 1-3.36 9.71 11.56 11.56 0 0 1-18.38-1.31L209 41h-3.15V1.65h3.4v17.7a10.7 10.7 0 0 1 9.44-5.09zm-.47 24.2a8.3 8.3 0 0 0 6.69-3 11.31 11.31 0 0 0 2.55-7.51 11.26 11.26 0 0 0-2.55-7.53 8.84 8.84 0 0 0-12.55-.77 10.37 10.37 0 0 0-3.12 5.83v4.94a10.31 10.31 0 0 0 3.12 5.82 8.31 8.31 0 0 0 5.86 2.22zM245 14.25a11.22 11.22 0 0 1 7.53 2.47q2.9 2.46 2.9 7.14V41h-3.1l-.16-4.3q-5 4.83-10.45 4.83a7.73 7.73 0 0 1-5.74-2.24 7.85 7.85 0 0 1-2.23-5.77 7 7 0 0 1 3.23-6.17q3.22-2.18 9.84-.87l5.25 1V23.7a5.82 5.82 0 0 0-2-4.86 8.28 8.28 0 0 0-5.27-1.6q-5.52 0-7.77 4l-2.42-2.1q3.06-4.9 10.37-4.9zm-2.52 24.2q4.83 0 9.6-4.88v-3.4l-5.2-1.1c-3.33-.66-5.76-.55-7.3.35a4.3 4.3 0 0 0-2.31 4 4.94 4.94 0 0 0 1.46 3.6 5.08 5.08 0 0 0 3.78 1.45zm24.8 3.1a6.81 6.81 0 0 1-5-1.89 6.69 6.69 0 0 1-1.89-4.94V1.65h3.4l.05 33.07a3.93 3.93 0 0 0 .92 2.81 3.39 3.39 0 0 0 2.6 1 3.63 3.63 0 0 0 2.78-1.1l1.95 2.36a6.47 6.47 0 0 1-4.82 1.76z" fill="#162149"/><path d="M284,39.86a5.67,5.67,0,1,1-8-8,5.67,5.67,0,1,1,8,8Z" fill="#ee6725"/><path d="M164.73 46.6a.52.52 0 0 1 .51-.51.51.51 0 0 1 0 1 .52.52 0 0 1-.51-.49zm.17 1.5h.68v5.2h-.68zm6.94 1.9v3.3h-.7v-3.22a1.46 1.46 0 0 0-1.49-1.47 1.52 1.52 0 0 0-1.54 1.5v3.2h-.7v-5.2h.64v.78a2.06 2.06 0 0 1 1.72-.88 2 2 0 0 1 2.05 2zm5.54-1.9l-2.1 5.2h-.67l-2.08-5.2h.74l1.72 4.4 1.68-4.4zm5.37 2.83h-4.17a1.81 1.81 0 0 0 1.82 1.87 1.7 1.7 0 0 0 1.54-.88l.47.34a2.21 2.21 0 0 1-2 1.14 2.71 2.71 0 0 1 0-5.4 2.4 2.4 0 0 1 2.38 2.66 2.53 2.53 0 0 1-.04.27zm-4.16-.54h3.54a1.75 1.75 0 0 0-1.74-1.8 1.81 1.81 0 0 0-1.8 1.8zm4.93 2.14l.4-.44a2.1 2.1 0 0 0 1.65.74c.7 0 1.3-.3 1.3-.9s-.7-.8-1.4-1-1.64-.5-1.64-1.46a1.65 1.65 0 0 1 1.82-1.46 2.74 2.74 0 0 1 1.69.58l-.4.47a1.75 1.75 0 0 0-1.16-.49c-.6 0-1.26.23-1.26.8s.62.82 1.3 1c.83.23 1.76.47 1.76 1.5s-.85 1.52-1.95 1.52a2.64 2.64 0 0 1-2.07-.87zm7.74.52a1.3 1.3 0 0 1-.95.35 1.29 1.29 0 0 1-1.37-1.35v-3.4h-.72v-.54h.72v-1.76h.68v1.76H191v.54h-1.35v3.4a.73.73 0 0 0 1.25.53zm9.9-4.95l-1.78 5.2h-.76l-1-2.84-.95 2.84h-.75l-1.8-5.2h.76l1.45 4.38 1-2.92-.5-1.46h.68l1.48 4.4 1.45-4.4zm.97-1.5a.52.52 0 0 1 .51-.51.51.51 0 0 1 0 1 .52.52 0 0 1-.51-.49zm.17 1.5h.7v5.2h-.68zm4.83 4.95a1.3 1.3 0 0 1-.95.35 1.29 1.29 0 0 1-1.37-1.35v-3.4h-.72v-.54h.72v-1.76h.7v1.76h1.34v.54h-1.34v3.4a.66.66 0 0 0 .7.75.7.7 0 0 0 .55-.22zm5.3-3.05v3.3h-.7v-3.22a1.46 1.46 0 0 0-1.49-1.47 1.51 1.51 0 0 0-1.54 1.5v3.2h-.7v-7.8h.7v3.35a2 2 0 0 1 1.7-.86 2 2 0 0 1 2.04 2zm1.24.7a2.51 2.51 0 1 1 2.5 2.7 2.54 2.54 0 0 1-2.5-2.7zm4.33 0a1.85 1.85 0 1 0-1.83 2.09A1.9 1.9 0 0 0 218 50.7zm6.35-2.6v5.2h-.62v-.8a2.07 2.07 0 0 1-1.69.89 2 2 0 0 1-2.05-2v-3.3h.68v3.18a1.51 1.51 0 0 0 1.51 1.51 1.53 1.53 0 0 0 1.54-1.51V48.1zm4.12 4.95a1.3 1.3 0 0 1-.95.35 1.29 1.29 0 0 1-1.37-1.35v-3.4h-.72v-.54h.72v-1.76h.7v1.76h1.34v.54h-1.34v3.4a.66.66 0 0 0 .7.75.67.67 0 0 0 .54-.22zM237 50.7a2.48 2.48 0 0 1-2.4 2.7 2.2 2.2 0 0 1-1.9-1v.94h-.63V45.5h.68V49a2.19 2.19 0 0 1 1.87-1 2.47 2.47 0 0 1 2.38 2.7zm-.67 0a1.89 1.89 0 0 0-1.83-2.09 1.83 1.83 0 0 0-1.77 1.6v1a1.83 1.83 0 0 0 1.77 1.6 1.89 1.89 0 0 0 1.83-2.11zm1.54 0a2.51 2.51 0 1 1 2.49 2.7 2.54 2.54 0 0 1-2.49-2.7zm4.32 0a1.85 1.85 0 1 0-1.83 2.09 1.9 1.9 0 0 0 1.83-2.09zm6.36-2.6v5.2h-.62v-.8a2.08 2.08 0 0 1-1.7.89 2 2 0 0 1-2.05-2v-3.3h.7v3.18a1.5 1.5 0 0 0 1.51 1.51 1.53 1.53 0 0 0 1.53-1.51V48.1zm6.07 1.9v3.3h-.7v-3.22a1.47 1.47 0 0 0-1.5-1.47 1.51 1.51 0 0 0-1.53 1.5v3.2h-.7v-5.2h.63v.78a2 2 0 0 1 1.76-.88 2 2 0 0 1 2.02 2zm6.18-4.5v7.8h-.62v-.94a2.19 2.19 0 0 1-1.89 1 2.72 2.72 0 0 1 0-5.4 2.22 2.22 0 0 1 1.88 1v-3.5zm-.67 5.68v-1a1.85 1.85 0 0 0-1.78-1.6 2.11 2.11 0 0 0 0 4.18 1.85 1.85 0 0 0 1.78-1.58zm6.27-1.28v3.4h-.62v-.85a3.05 3.05 0 0 1-2.06.95 1.52 1.52 0 0 1-1.58-1.59c0-.92.7-1.76 2.58-1.4l1 .2v-.75c0-.9-.63-1.28-1.44-1.28a1.67 1.67 0 0 0-1.54.8l-.48-.4a2.28 2.28 0 0 1 2.06-1 1.85 1.85 0 0 1 2.08 1.92zm-.67 1.92v-.67l-1-.22c-1.42-.3-1.9.25-1.9.85a1 1 0 0 0 1 1 2.71 2.71 0 0 0 1.9-.96zm5.57-3.57l-.32.5a1.74 1.74 0 0 0-.71-.14 1.62 1.62 0 0 0-1.54 1.66v3H268V48.1h.63v.86a1.94 1.94 0 0 1 1.59-1 1.61 1.61 0 0 1 1.07.29zm.7-1.65a.51.51 0 1 1 .5.51.51.51 0 0 1-.5-.51zm.16 1.5h.7v5.2h-.7zm6.96 2.83H275a1.8 1.8 0 0 0 1.81 1.87 1.67 1.67 0 0 0 1.54-.88l.48.34a2.22 2.22 0 0 1-2 1.14 2.71 2.71 0 0 1 0-5.4 2.4 2.4 0 0 1 2.38 2.66 2.53 2.53 0 0 1-.09.27zM275 50.4h3.54a1.76 1.76 0 0 0-1.75-1.8 1.8 1.8 0 0 0-1.79 1.8zm4.9 2.13l.4-.44a2.07 2.07 0 0 0 1.65.74c.7 0 1.3-.3 1.3-.9s-.7-.8-1.42-1-1.64-.5-1.64-1.46.9-1.47 1.8-1.47a2.71 2.71 0 0 1 1.68.58l-.4.47a1.75 1.75 0 0 0-1.17-.49c-.6 0-1.25.23-1.25.8s.62.82 1.3 1 1.75.47 1.75 1.5-.84 1.52-1.94 1.52a2.66 2.66 0 0 1-2.08-.87z" fill="#162149"/></svg>